<?xml version="1.0" encoding="UTF-8"?>
<svg width="512" height="512" viewBox="0 0 512 512" fill="none" xmlns="http://www.w3.org/2000/svg">
  <defs>
    <linearGradient id="bg-grad" x1="64" y1="32" x2="448" y2="496" gradientUnits="userSpaceOnUse">
      <stop offset="0" stop-color="#063a86" />
      <stop offset="1" stop-color="#020e2d" />
    </linearGradient>
    <filter id="photon-glow" x="-50%" y="-50%" width="200%" height="200%" color-interpolation-filters="sRGB">
      <feGaussianBlur in="SourceGraphic" stdDeviation="4" result="blur" />
      <feMerge>
        <feMergeNode in="blur" />
        <feMergeNode in="SourceGraphic" />
      </feMerge>
    </filter>
  </defs>

  <rect width="512" height="512" rx="64" fill="url(#bg-grad)" />
  <rect x="20" y="20" width="472" height="472" rx="56" stroke="#0b2c73" stroke-width="4" opacity="0.4" />

  <text x="256" y="116" text-anchor="middle" font-family="'Segoe UI', 'Roboto', sans-serif" font-size="76" font-weight="700" letter-spacing="2">
    <tspan fill="#48D96B">Circui</tspan>
    <tspan fill="#FF9A3C">Try</tspan>
    <tspan fill="#7FD5FF">3D</tspan>
  </text>

  <g stroke="#48D96B" stroke-width="8" stroke-linecap="round" stroke-linejoin="round" fill="none">
    <!-- Top wire and battery -->
    <line x1="96" y1="140" x2="190" y2="140" />
    <line x1="232" y1="140" x2="416" y2="140" />
    <line x1="210" y1="116" x2="210" y2="164" />
    <line x1="232" y1="124" x2="232" y2="156" />
    <line x1="190" y1="140" x2="210" y2="140" />

    <!-- Left wire and resistor -->
    <line x1="96" y1="140" x2="96" y2="210" />
    <line x1="96" y1="330" x2="96" y2="460" />
    <path d="M96 210l-18 20 36 20-36 20 36 20-36 20 18 20" />

    <!-- Bottom wire and switch -->
    <line x1="96" y1="460" x2="214" y2="460" />
    <circle cx="224" cy="460" r="10" />
    <line x1="234" y1="454" x2="268" y2="434" />
    <circle cx="284" cy="460" r="10" />
    <line x1="294" y1="460" x2="416" y2="460" />

    <!-- Right wire segments -->
    <line x1="416" y1="140" x2="416" y2="200" />
    <line x1="416" y1="360" x2="416" y2="460" />
  </g>

  <g stroke="#48D96B" stroke-width="8" stroke-linecap="round" stroke-linejoin="round" fill="none" transform="translate(416 280) rotate(90)">
    <line x1="-80" y1="0" x2="-40" y2="0" />
    <path d="M-40 -32 L -40 32 L 16 0 Z" />
    <line x1="16" y1="-32" x2="16" y2="32" />
    <line x1="16" y1="0" x2="40" y2="0" />
    <line x1="40" y1="0" x2="80" y2="0" />
    <path d="M36 -16 L56 -32" />
    <path d="M44 -8 L60 -24" />
    <path d="M36 16 L56 32" />
    <path d="M44 8 L60 24" />
  </g>

  <!-- Battery polarity marks -->
  <text x="198" y="112" font-family="'Segoe UI', 'Roboto', sans-serif" font-size="18" font-weight="700" fill="#48D96B">+</text>
  <text x="228" y="176" font-family="'Segoe UI', 'Roboto', sans-serif" font-size="18" font-weight="700" fill="#48D96B">−</text>

  <!-- Photons -->
  <g fill="#FFE066" filter="url(#photon-glow)" stroke="#FFE066" stroke-width="2">
    <circle cx="436" cy="244" r="8" />
    <circle cx="456" cy="304" r="6" />
  </g>
  <g stroke="#FFE066" stroke-width="2" stroke-linecap="round">
    <path d="M448 236l10-10" />
    <path d="M444 252l12 6" />
    <path d="M468 298l10-10" />
    <path d="M462 312l12 6" />
  </g>
</svg>
