<svg viewBox="0 0 240 180" xmlns="http://www.w3.org/2000/svg" role="img" aria-label="CircuiTry3D Logo">
  <defs>
    <linearGradient id="wireGradient" x1="0%" y1="0%" x2="100%" y2="100%">
      <stop offset="0%" style="stop-color:#2dd4bf;stop-opacity:1" />
      <stop offset="100%" style="stop-color:#14b8a6;stop-opacity:1" />
    </linearGradient>
    <linearGradient id="componentGradient" x1="0%" y1="0%" x2="100%" y2="0%">
      <stop offset="0%" style="stop-color:#2dd4bf;stop-opacity:1" />
      <stop offset="100%" style="stop-color:#5eead4;stop-opacity:1" />
    </linearGradient>
    <filter id="glow">
      <feGaussianBlur stdDeviation="2" result="coloredBlur"/>
      <feMerge>
        <feMergeNode in="coloredBlur"/>
        <feMergeNode in="SourceGraphic"/>
      </feMerge>
    </filter>
  </defs>
  
  <g stroke="url(#wireGradient)" strokeWidth="3.5" fill="none" strokeLinecap="round" strokeLinejoin="round">
    
    <line x1="50" y1="50" x2="80" y2="50" stroke="url(#wireGradient)" strokeWidth="3.5" />
    
    <g transform="translate(120, 50)" stroke="url(#componentGradient)" strokeWidth="3.5" filter="url(#glow)">
      <polyline points="-30,0 -20,0 -15,-12 -5,12 5,-12 15,12 20,0 30,0" />
    </g>
    
    <line x1="150" y1="50" x2="190" y2="50" stroke="url(#wireGradient)" strokeWidth="3.5" />
    
    <line x1="190" y1="50" x2="190" y2="80" stroke="url(#wireGradient)" strokeWidth="3.5" />
    
    <g transform="translate(190, 120) rotate(90)" stroke="url(#componentGradient)" strokeWidth="3.5" filter="url(#glow)">
      <polyline points="-30,0 -20,0 -15,-12 -5,12 5,-12 15,12 20,0 30,0" />
    </g>
    
    <line x1="190" y1="130" x2="190" y2="130" stroke="url(#wireGradient)" strokeWidth="3.5" />
    
    <line x1="190" y1="130" x2="150" y2="130" stroke="url(#wireGradient)" strokeWidth="3.5" />
    
    <g transform="translate(120, 130)" stroke="url(#componentGradient)" strokeWidth="3.5" filter="url(#glow)">
      <polyline points="-30,0 -20,0 -15,-12 -5,12 5,-12 15,12 20,0 30,0" />
    </g>
    
    <line x1="90" y1="130" x2="50" y2="130" stroke="url(#wireGradient)" strokeWidth="3.5" />
    
    <line x1="50" y1="130" x2="50" y2="96" stroke="url(#wireGradient)" strokeWidth="3.5" />
    
    <g transform="translate(50, 90)">
      <line x1="-15" y1="-5" x2="15" y2="-5" stroke="url(#componentGradient)" strokeWidth="2.5" />
      <line x1="-20" y1="6" x2="20" y2="6" stroke="url(#componentGradient)" strokeWidth="4" />
    </g>
    
    <line x1="50" y1="84" x2="50" y2="50" stroke="url(#wireGradient)" strokeWidth="3.5" />
    
    <circle cx="50" cy="50" r="3.5" fill="#2dd4bf" stroke="#0d9488" strokeWidth="1.2" />
    <circle cx="190" cy="50" r="3.5" fill="#2dd4bf" stroke="#0d9488" strokeWidth="1.2" />
    <circle cx="190" cy="130" r="3.5" fill="#2dd4bf" stroke="#0d9488" strokeWidth="1.2" />
    <circle cx="50" cy="130" r="3.5" fill="#2dd4bf" stroke="#0d9488" strokeWidth="1.2" />
  </g>
</svg>
