<svg xmlns="http://www.w3.org/2000/svg" xmlns:xlink="http://www.w3.org/1999/xlink"
     width="512" height="512" viewBox="0 0 512 512"
     role="img" aria-label="CircuiTry3D Logo - Series Circuit">
  <defs>
    <!-- ── Background gradient ── -->
    <radialGradient id="bg" cx="50%" cy="50%" r="64%">
      <stop offset="0%" stop-color="#1e293b"/>
      <stop offset="100%" stop-color="#0f172a"/>
    </radialGradient>

    <!-- ── Workspace grid overlay ── -->
    <pattern id="grid-fine" width="16" height="16" patternUnits="userSpaceOnUse">
      <path d="M 16 0 L 0 0 0 16" fill="none" stroke="#0a0a1a" stroke-width="0.5"/>
    </pattern>
    <pattern id="grid-coarse" width="32" height="32" patternUnits="userSpaceOnUse">
      <rect width="32" height="32" fill="url(#grid-fine)"/>
      <path d="M 32 0 L 0 0 0 32" fill="none" stroke="#111122" stroke-width="1"/>
    </pattern>

    <!-- ── Circuit glow ── -->
    <filter id="circuitGlow" x="0" y="0" width="512" height="512"
            filterUnits="userSpaceOnUse">
      <feGaussianBlur stdDeviation="4" result="blur"/>
      <feMerge>
        <feMergeNode in="blur"/>
        <feMergeNode in="SourceGraphic"/>
      </feMerge>
    </filter>

    <!-- ── Photon glow + soft comet tail ── -->
    <filter id="photonGlow" x="-80%" y="-80%" width="260%" height="260%">
      <feGaussianBlur stdDeviation="4.5" result="blur"/>
      <feColorMatrix in="blur" type="matrix"
        values="1 0 0 0 0  0 1 0 0 0  0 0 1 0 0  0 0 0 16 -3.5"
        result="glow"/>
      <feMerge>
        <feMergeNode in="glow"/>
        <feMergeNode in="SourceGraphic"/>
      </feMerge>
    </filter>

    <radialGradient id="photonFill" cx="35%" cy="35%" r="80%">
      <stop offset="0%" style="stop-color:#ffffff;stop-opacity:1"/>
      <stop offset="46%" style="stop-color:#e8fffb;stop-opacity:1"/>
      <stop offset="100%" style="stop-color:#00ff88;stop-opacity:1"/>
    </radialGradient>

    <!-- ── Arrowhead for 5A current-direction indicators ── -->
    <marker id="arrowCurrent"
            markerWidth="10" markerHeight="8" refX="9" refY="4"
            orient="auto" markerUnits="userSpaceOnUse">
      <path d="M0,0 L0,8 L10,4 Z" fill="#ffffff" opacity="0.9"/>
    </marker>

    <!--
      Photon path: BL(56,414) → up left wire → TL(56,98) → R1 zigzag →
      TR(456,98) → R2 zigzag → BR(456,414) → R3 zigzag → BL(56,414)
    -->
    <path id="photonPath"
      d="M 56 414
         L 56 98
         L 152 98 L 180 98 L 197 63 L 232 133 L 266 63 L 301 133 L 318 98 L 360 98
         L 456 98
         L 456 182 L 456 202 L 481 214 L 431 239 L 481 263 L 431 288 L 456 300 L 456 330
         L 456 414
         L 360 414 L 318 414 L 301 449 L 266 379 L 232 449 L 197 379 L 180 414 L 152 414
         L 56 414"/>
  </defs>

  <!-- ── Background ── -->
  <rect width="512" height="512" fill="url(#bg)"/>
  <rect width="512" height="512" fill="url(#grid-coarse)"/>

  <!-- ── WIRES ── -->
  <!-- TOP: left lead (TL → R1 start) -->
  <line x1="56" y1="98" x2="152" y2="98"
        stroke="#00ff88" stroke-width="6" stroke-linecap="round"
        filter="url(#circuitGlow)"/>
  <!-- TOP: right lead (R1 end → TR) -->
  <line x1="360" y1="98" x2="456" y2="98"
        stroke="#00ff88" stroke-width="6" stroke-linecap="round"
        filter="url(#circuitGlow)"/>
  <!-- RIGHT: top lead (TR → R2 start) -->
  <line x1="456" y1="98" x2="456" y2="182"
        stroke="#00ff88" stroke-width="6" stroke-linecap="round"
        filter="url(#circuitGlow)"/>
  <!-- RIGHT: bottom lead (R2 end → BR) -->
  <line x1="456" y1="330" x2="456" y2="414"
        stroke="#00ff88" stroke-width="6" stroke-linecap="round"
        filter="url(#circuitGlow)"/>
  <!-- BOTTOM: right lead (BR → R3 start) -->
  <line x1="456" y1="414" x2="360" y2="414"
        stroke="#00ff88" stroke-width="6" stroke-linecap="round"
        filter="url(#circuitGlow)"/>
  <!-- BOTTOM: left lead (R3 end → BL) -->
  <line x1="152" y1="414" x2="56" y2="414"
        stroke="#00ff88" stroke-width="6" stroke-linecap="round"
        filter="url(#circuitGlow)"/>
  <!-- LEFT: upper wire (TL → battery + plate) -->
  <line x1="56" y1="98" x2="56" y2="244"
        stroke="#00ff88" stroke-width="6" stroke-linecap="round"
        filter="url(#circuitGlow)"/>
  <!-- LEFT: lower wire (battery − plate → BL) -->
  <line x1="56" y1="268" x2="56" y2="414"
        stroke="#00ff88" stroke-width="6" stroke-linecap="round"
        filter="url(#circuitGlow)"/>

  <!-- ── RESISTORS ── -->
  <!-- R1 — top horizontal -->
  <polyline
    points="152,98 180,98 197,63 232,133 266,63 301,133 318,98 360,98"
    fill="none" stroke="#ff8844" stroke-width="9"
    stroke-linecap="round" stroke-linejoin="round"
    filter="url(#circuitGlow)"/>
  <!-- R2 — right vertical -->
  <polyline
    points="456,182 456,202 481,214 431,239 481,263 431,288 456,300 456,330"
    fill="none" stroke="#ff8844" stroke-width="9"
    stroke-linecap="round" stroke-linejoin="round"
    filter="url(#circuitGlow)"/>
  <!-- R3 — bottom horizontal (reversed) -->
  <polyline
    points="360,414 318,414 301,449 266,379 232,449 197,379 180,414 152,414"
    fill="none" stroke="#ff8844" stroke-width="9"
    stroke-linecap="round" stroke-linejoin="round"
    filter="url(#circuitGlow)"/>

  <!-- ── BATTERY ── -->
  <!-- + plate (wide) -->
  <line x1="33" y1="244" x2="79" y2="244"
        stroke="#ff2b2b" stroke-width="13" stroke-linecap="square"/>
  <!-- − plate (narrow) -->
  <line x1="43" y1="268" x2="69" y2="268"
        stroke="#ff2b2b" stroke-width="7" stroke-linecap="square"/>
  <!-- Polarity markers -->
  <text x="20" y="248" text-anchor="middle"
        font-family="sans-serif" font-size="20" font-weight="700"
        fill="#ff6b6b">+</text>
  <text x="20" y="274" text-anchor="middle"
        font-family="sans-serif" font-size="20" font-weight="700"
        fill="#ff6b6b">−</text>
  <!-- Voltage label -->
  <text x="80" y="274" text-anchor="start"
        font-family="system-ui, -apple-system, sans-serif" font-size="18" font-weight="700"
        fill="#ff2b2b"
        stroke="#050b1f" stroke-width="1.5" paint-order="stroke fill">12V</text>

    <line x1="55" y1="50" x2="100" y2="50" stroke="url(#wireGradient)" strokeWidth="3.5" />

    <g transform="translate(130, 50)" stroke="url(#componentGradient)" strokeWidth="3.5" filter="url(#glow)">
      <polyline points="-30,0 -22,0 -17,-10 -7,10 3,-10 13,10 18,0 30,0" />
    </g>

    <line x1="160" y1="50" x2="205" y2="50" stroke="url(#wireGradient)" strokeWidth="3.5" />

    <line x1="205" y1="50" x2="205" y2="75" stroke="url(#wireGradient)" strokeWidth="3.5" />

    <g transform="translate(205, 105) rotate(90)" stroke="url(#componentGradient)" strokeWidth="3.5" filter="url(#glow)">
      <polyline points="-30,0 -22,0 -17,-10 -7,10 3,-10 13,10 18,0 30,0" />
    </g>

    <line x1="205" y1="135" x2="205" y2="150" stroke="url(#wireGradient)" strokeWidth="3.5" />

    <line x1="205" y1="150" x2="155" y2="150" stroke="url(#wireGradient)" strokeWidth="3.5" />

    <g transform="translate(125, 150)" stroke="url(#componentGradient)" strokeWidth="3.5" filter="url(#glow)">
      <polyline points="-30,0 -22,0 -17,-10 -7,10 3,-10 13,10 18,0 30,0" />
    </g>

    <line x1="95" y1="150" x2="55" y2="150" stroke="url(#wireGradient)" strokeWidth="3.5" />

    <line x1="55" y1="150" x2="55" y2="115" stroke="url(#wireGradient)" strokeWidth="3.5" />

    <circle cx="55" cy="50" r="3.5" fill="#00ff88" stroke="#0f172a" strokeWidth="1.5" />
    <circle cx="205" cy="50" r="3.5" fill="#00ff88" stroke="#0f172a" strokeWidth="1.5" />
    <circle cx="205" cy="150" r="3.5" fill="#00ff88" stroke="#0f172a" strokeWidth="1.5" />
    <circle cx="55" cy="150" r="3.5" fill="#00ff88" stroke="#0f172a" strokeWidth="1.5" />

    <text x="35" y="35" fontSize="8" fill="#94a3b8" fontWeight="bold">1</text>
    <text x="220" y="35" fontSize="8" fill="#94a3b8" fontWeight="bold">2</text>
    <text x="220" y="165" fontSize="8" fill="#94a3b8" fontWeight="bold">3</text>
    <text x="35" y="165" fontSize="8" fill="#94a3b8" fontWeight="bold">4</text>
  </g>
  <!-- R2 unknown value -->
  <text x="498" y="260"
        font-family="system-ui, -apple-system, sans-serif" font-size="18"
        fill="#ff2b2b" font-weight="800" text-anchor="start"
        stroke="#050b1f" stroke-width="1.5" paint-order="stroke fill">?</text>

  <!-- ── CURRENT INDICATORS ── -->
  <!-- Top-left 5A -->
  <path d="M 91,157 L 91,115 L 137,115"
        fill="none" stroke="#ffffff" stroke-width="2.5"
        stroke-linecap="round" stroke-linejoin="round"
        marker-end="url(#arrowCurrent)"/>
  <text x="99" y="149"
        font-family="system-ui, -apple-system, sans-serif" font-size="14" font-weight="700"
        fill="#ffffff"
        stroke="#050b1f" stroke-width="1.5" paint-order="stroke fill">5A</text>
  <!-- Bottom-right 5A -->
  <path d="M 421,360 L 421,403 L 374,403"
        fill="none" stroke="#ffffff" stroke-width="2.5"
        stroke-linecap="round" stroke-linejoin="round"
        marker-end="url(#arrowCurrent)"/>
  <text x="381" y="382"
        font-family="system-ui, -apple-system, sans-serif" font-size="14" font-weight="700"
        fill="#ffffff"
        stroke="#050b1f" stroke-width="1.5" paint-order="stroke fill">5A</text>

  <!-- ── ANIMATED PHOTONS (two particles with comet tails) ── -->
  <g aria-hidden="true" filter="url(#photonGlow)">
    <!-- Photon A -->
    <g>
      <circle r="8" fill="url(#photonFill)" opacity="1">
        <animateMotion dur="3.4s" repeatCount="indefinite" rotate="auto">
          <mpath href="#photonPath" xlink:href="#photonPath" />
        </animateMotion>
      </circle>
      <circle r="6.5" fill="url(#photonFill)" opacity="0.55">
        <animateMotion dur="3.4s" repeatCount="indefinite" rotate="auto" begin="-0.14s">
          <mpath href="#photonPath" xlink:href="#photonPath" />
        </animateMotion>
      </circle>
      <circle r="5.2" fill="url(#photonFill)" opacity="0.32">
        <animateMotion dur="3.4s" repeatCount="indefinite" rotate="auto" begin="-0.28s">
          <mpath href="#photonPath" xlink:href="#photonPath" />
        </animateMotion>
      </circle>
      <circle r="4.2" fill="url(#photonFill)" opacity="0.2">
        <animateMotion dur="3.4s" repeatCount="indefinite" rotate="auto" begin="-0.42s">
          <mpath href="#photonPath" xlink:href="#photonPath" />
        </animateMotion>
      </circle>
      <circle r="3.4" fill="url(#photonFill)" opacity="0.12">
        <animateMotion dur="3.4s" repeatCount="indefinite" rotate="auto" begin="-0.56s">
          <mpath href="#photonPath" xlink:href="#photonPath" />
        </animateMotion>
      </circle>
      <circle r="2.7" fill="url(#photonFill)" opacity="0.08">
        <animateMotion dur="3.4s" repeatCount="indefinite" rotate="auto" begin="-0.70s">
          <mpath href="#photonPath" xlink:href="#photonPath" />
        </animateMotion>
      </circle>
      <circle r="2.1" fill="url(#photonFill)" opacity="0.06">
        <animateMotion dur="3.4s" repeatCount="indefinite" rotate="auto" begin="-0.84s">
          <mpath href="#photonPath" xlink:href="#photonPath" />
        </animateMotion>
      </circle>
    </g>
    <!-- Photon B (phase offset) -->
    <g>
      <circle r="8" fill="url(#photonFill)" opacity="1">
        <animateMotion dur="3.4s" repeatCount="indefinite" rotate="auto" begin="-1.7s">
          <mpath href="#photonPath" xlink:href="#photonPath" />
        </animateMotion>
      </circle>
      <circle r="6.5" fill="url(#photonFill)" opacity="0.55">
        <animateMotion dur="3.4s" repeatCount="indefinite" rotate="auto" begin="-1.84s">
          <mpath href="#photonPath" xlink:href="#photonPath" />
        </animateMotion>
      </circle>
      <circle r="5.2" fill="url(#photonFill)" opacity="0.32">
        <animateMotion dur="3.4s" repeatCount="indefinite" rotate="auto" begin="-1.98s">
          <mpath href="#photonPath" xlink:href="#photonPath" />
        </animateMotion>
      </circle>
      <circle r="4.2" fill="url(#photonFill)" opacity="0.2">
        <animateMotion dur="3.4s" repeatCount="indefinite" rotate="auto" begin="-2.12s">
          <mpath href="#photonPath" xlink:href="#photonPath" />
        </animateMotion>
      </circle>
      <circle r="3.4" fill="url(#photonFill)" opacity="0.12">
        <animateMotion dur="3.4s" repeatCount="indefinite" rotate="auto" begin="-2.26s">
          <mpath href="#photonPath" xlink:href="#photonPath" />
        </animateMotion>
      </circle>
      <circle r="2.7" fill="url(#photonFill)" opacity="0.08">
        <animateMotion dur="3.4s" repeatCount="indefinite" rotate="auto" begin="-2.40s">
          <mpath href="#photonPath" xlink:href="#photonPath" />
        </animateMotion>
      </circle>
      <circle r="2.1" fill="url(#photonFill)" opacity="0.06">
        <animateMotion dur="3.4s" repeatCount="indefinite" rotate="auto" begin="-2.54s">
          <mpath href="#photonPath" xlink:href="#photonPath" />
        </animateMotion>
      </circle>
    </g>
  </g>
</svg>
