<svg xmlns="http://www.w3.org/2000/svg" viewBox="0 0 200 200" fill="none">
  <defs>
    <radialGradient id="wireGuideBadgeFill" cx="0" cy="0" r="1" gradientUnits="userSpaceOnUse" gradientTransform="translate(96 82) rotate(90) scale(128 128)">
      <stop offset="0" stop-color="#1d3e70" />
      <stop offset="1" stop-color="#0b1d38" />
    </radialGradient>
    <linearGradient id="wireGuideBadgeStroke" x1="28" y1="24" x2="172" y2="176" gradientUnits="userSpaceOnUse">
      <stop offset="0" stop-color="#9bdcff" />
      <stop offset="1" stop-color="#3ea0d8" />
    </linearGradient>
    <linearGradient id="wireGuidePath" x1="52" y1="62" x2="150" y2="146" gradientUnits="userSpaceOnUse">
      <stop offset="0" stop-color="#6fd9ff" />
      <stop offset="1" stop-color="#1f8ed1" />
    </linearGradient>
    <linearGradient id="wireGuideCopper" x1="58" y1="54" x2="148" y2="154" gradientUnits="userSpaceOnUse">
      <stop offset="0" stop-color="#ffd08a" />
      <stop offset="1" stop-color="#dd8b37" />
    </linearGradient>
  </defs>

  <circle cx="100" cy="100" r="92" fill="url(#wireGuideBadgeFill)" stroke="url(#wireGuideBadgeStroke)" stroke-width="8" />

  <path
    d="M52 62V112H98V146H148"
    stroke="url(#wireGuidePath)"
    stroke-width="16"
    stroke-linecap="round"
    stroke-linejoin="round"
  />

  <circle cx="52" cy="62" r="12" fill="#11497a" stroke="#a9e6ff" stroke-width="4" />
  <circle cx="98" cy="112" r="9" fill="#1b6ea8" stroke="#8cd8ff" stroke-width="3" />
  <circle cx="148" cy="146" r="12" fill="#11497a" stroke="#a9e6ff" stroke-width="4" />

  <circle cx="52" cy="62" r="4" fill="#d8f3ff" />
  <circle cx="148" cy="146" r="4" fill="#d8f3ff" />

  <path d="M121 42h26l13 13v38a8 8 0 0 1-8 8h-31a8 8 0 0 1-8-8V50a8 8 0 0 1 8-8Z" fill="rgba(8, 24, 45, 0.72)" stroke="rgba(151, 217, 255, 0.72)" stroke-width="3" />
  <path d="M147 42v13h13" stroke="rgba(151, 217, 255, 0.72)" stroke-width="3" stroke-linecap="round" />
  <path d="M126 67h27M126 80h21" stroke="#8cd8ff" stroke-width="4" stroke-linecap="round" />

  <line x1="46" y1="48" x2="52" y2="54" stroke="url(#wireGuideCopper)" stroke-width="6" stroke-linecap="round" />
  <line x1="148" y1="146" x2="156" y2="154" stroke="url(#wireGuideCopper)" stroke-width="6" stroke-linecap="round" />
</svg>
