<svg xmlns="http://www.w3.org/2000/svg" viewBox="0 0 200 120" fill="none">
  <defs>
    <!-- Copper gradient for conductor cores -->
    <linearGradient id="copperCore" x1="0%" y1="0%" x2="100%" y2="100%">
      <stop offset="0%" stop-color="#FFD699"/>
      <stop offset="30%" stop-color="#E8A050"/>
      <stop offset="60%" stop-color="#B87333"/>
      <stop offset="100%" stop-color="#CD853F"/>
    </linearGradient>

    <!-- Copper strands radial for end view -->
    <radialGradient id="copperEnd" cx="50%" cy="50%" r="50%">
      <stop offset="0%" stop-color="#FFE4B8"/>
      <stop offset="40%" stop-color="#E8A050"/>
      <stop offset="80%" stop-color="#B87333"/>
      <stop offset="100%" stop-color="#8B5A2B"/>
    </radialGradient>

    <!-- Brown insulation -->
    <linearGradient id="brownIns" x1="0%" y1="0%" x2="0%" y2="100%">
      <stop offset="0%" stop-color="#8B5A3C"/>
      <stop offset="30%" stop-color="#6B3E28"/>
      <stop offset="100%" stop-color="#4A2A1A"/>
    </linearGradient>

    <!-- Blue insulation -->
    <linearGradient id="blueIns" x1="0%" y1="0%" x2="0%" y2="100%">
      <stop offset="0%" stop-color="#5BA8D8"/>
      <stop offset="30%" stop-color="#3A82B8"/>
      <stop offset="100%" stop-color="#1A5580"/>
    </linearGradient>

    <!-- Green/Yellow ground wire -->
    <linearGradient id="greenYellowIns" x1="0%" y1="0%" x2="100%" y2="0%">
      <stop offset="0%" stop-color="#3DA03D"/>
      <stop offset="25%" stop-color="#3DA03D"/>
      <stop offset="30%" stop-color="#E8D020"/>
      <stop offset="70%" stop-color="#E8D020"/>
      <stop offset="75%" stop-color="#3DA03D"/>
      <stop offset="100%" stop-color="#3DA03D"/>
    </linearGradient>

    <!-- Black insulation -->
    <linearGradient id="blackIns" x1="0%" y1="0%" x2="0%" y2="100%">
      <stop offset="0%" stop-color="#4A4A4A"/>
      <stop offset="30%" stop-color="#2A2A2A"/>
      <stop offset="100%" stop-color="#151515"/>
    </linearGradient>

    <!-- Grey insulation -->
    <linearGradient id="greyIns" x1="0%" y1="0%" x2="0%" y2="100%">
      <stop offset="0%" stop-color="#8A8A8A"/>
      <stop offset="30%" stop-color="#606060"/>
      <stop offset="100%" stop-color="#404040"/>
    </linearGradient>
  </defs>

  <!-- Background subtle gradient for depth -->
  <rect x="0" y="0" width="200" height="120" fill="#0a0a12" rx="4"/>

  <!-- Wire 1: Brown (back-left, longest copper exposure) -->
  <g transform="rotate(-8, 100, 60)">
    <!-- Wire body -->
    <ellipse cx="20" cy="45" rx="9" ry="11" fill="url(#brownIns)"/>
    <rect x="20" y="34" width="130" height="22" fill="url(#brownIns)"/>
    <!-- Exposed copper section -->
    <rect x="150" y="37" width="38" height="16" fill="url(#copperCore)" rx="1"/>
    <!-- Copper end face -->
    <ellipse cx="188" cy="45" rx="6" ry="8" fill="url(#copperEnd)"/>
    <!-- Copper strand lines -->
    <line x1="155" y1="40" x2="185" y2="40" stroke="#FFE4B8" stroke-width="0.6" opacity="0.5"/>
    <line x1="155" y1="43" x2="185" y2="43" stroke="#FFD699" stroke-width="0.8" opacity="0.6"/>
    <line x1="155" y1="46" x2="185" y2="46" stroke="#FFE4B8" stroke-width="0.7" opacity="0.5"/>
    <line x1="155" y1="49" x2="185" y2="49" stroke="#FFD699" stroke-width="0.6" opacity="0.5"/>
  </g>

  <!-- Wire 2: Blue (middle-top) -->
  <g transform="rotate(-3, 100, 60)">
    <!-- Wire body -->
    <ellipse cx="25" cy="35" rx="8" ry="10" fill="url(#blueIns)"/>
    <rect x="25" y="25" width="115" height="20" fill="url(#blueIns)"/>
    <!-- Exposed copper section -->
    <rect x="140" y="28" width="32" height="14" fill="url(#copperCore)" rx="1"/>
    <!-- Copper end face -->
    <ellipse cx="172" cy="35" rx="5" ry="7" fill="url(#copperEnd)"/>
    <!-- Copper strand lines -->
    <line x1="144" y1="32" x2="168" y2="32" stroke="#FFE4B8" stroke-width="0.5" opacity="0.5"/>
    <line x1="144" y1="35" x2="168" y2="35" stroke="#FFD699" stroke-width="0.7" opacity="0.6"/>
    <line x1="144" y1="38" x2="168" y2="38" stroke="#FFE4B8" stroke-width="0.5" opacity="0.5"/>
  </g>

  <!-- Wire 3: Green/Yellow ground (middle, medium length) -->
  <g transform="rotate(2, 100, 60)">
    <!-- Wire body -->
    <ellipse cx="30" cy="60" rx="7" ry="9" fill="url(#greenYellowIns)"/>
    <rect x="30" y="51" width="105" height="18" fill="url(#greenYellowIns)"/>
    <!-- Exposed copper section -->
    <rect x="135" y="54" width="28" height="12" fill="url(#copperCore)" rx="1"/>
    <!-- Copper end face -->
    <ellipse cx="163" cy="60" rx="4.5" ry="6" fill="url(#copperEnd)"/>
    <!-- Copper strand lines -->
    <line x1="138" y1="57" x2="160" y2="57" stroke="#FFE4B8" stroke-width="0.5" opacity="0.5"/>
    <line x1="138" y1="60" x2="160" y2="60" stroke="#FFD699" stroke-width="0.6" opacity="0.6"/>
    <line x1="138" y1="63" x2="160" y2="63" stroke="#FFE4B8" stroke-width="0.5" opacity="0.5"/>
  </g>

  <!-- Wire 4: Black (front-bottom, shorter copper) -->
  <g transform="rotate(6, 100, 60)">
    <!-- Wire body -->
    <ellipse cx="18" cy="78" rx="8" ry="10" fill="url(#blackIns)"/>
    <rect x="18" y="68" width="125" height="20" fill="url(#blackIns)"/>
    <!-- Exposed copper section -->
    <rect x="143" y="71" width="25" height="14" fill="url(#copperCore)" rx="1"/>
    <!-- Copper end face -->
    <ellipse cx="168" cy="78" rx="5" ry="7" fill="url(#copperEnd)"/>
    <!-- Copper strand lines -->
    <line x1="146" y1="74" x2="164" y2="74" stroke="#FFE4B8" stroke-width="0.5" opacity="0.5"/>
    <line x1="146" y1="77" x2="164" y2="77" stroke="#FFD699" stroke-width="0.7" opacity="0.6"/>
    <line x1="146" y1="80" x2="164" y2="80" stroke="#FFE4B8" stroke-width="0.5" opacity="0.5"/>
  </g>

  <!-- Wire 5: Grey (front, shortest) -->
  <g transform="rotate(10, 100, 60)">
    <!-- Wire body -->
    <ellipse cx="35" cy="95" rx="6" ry="8" fill="url(#greyIns)"/>
    <rect x="35" y="87" width="90" height="16" fill="url(#greyIns)"/>
    <!-- Exposed copper section -->
    <rect x="125" y="89" width="22" height="12" fill="url(#copperCore)" rx="1"/>
    <!-- Copper end face -->
    <ellipse cx="147" cy="95" rx="4" ry="6" fill="url(#copperEnd)"/>
    <!-- Copper strand lines -->
    <line x1="128" y1="92" x2="144" y2="92" stroke="#FFE4B8" stroke-width="0.4" opacity="0.5"/>
    <line x1="128" y1="95" x2="144" y2="95" stroke="#FFD699" stroke-width="0.6" opacity="0.6"/>
    <line x1="128" y1="98" x2="144" y2="98" stroke="#FFE4B8" stroke-width="0.4" opacity="0.5"/>
  </g>
</svg>
