<svg xmlns="http://www.w3.org/2000/svg" viewBox="0 0 200 120" fill="none">
  <defs>
    <!-- Copper gradient for conductor cores -->
    <linearGradient id="copperCore" x1="0%" y1="0%" x2="100%" y2="100%">
      <stop offset="0%" stop-color="#FFD699"/>
      <stop offset="30%" stop-color="#E8A050"/>
      <stop offset="60%" stop-color="#B87333"/>
      <stop offset="100%" stop-color="#CD853F"/>
    </linearGradient>

    <!-- Copper strands highlight -->
    <linearGradient id="copperStrand" x1="0%" y1="0%" x2="100%" y2="0%">
      <stop offset="0%" stop-color="#B87333"/>
      <stop offset="40%" stop-color="#E8A050"/>
      <stop offset="70%" stop-color="#FFD699"/>
      <stop offset="100%" stop-color="#B87333"/>
    </linearGradient>

    <!-- Brown insulation -->
    <linearGradient id="brownIns" x1="0%" y1="0%" x2="0%" y2="100%">
      <stop offset="0%" stop-color="#8B5A3C"/>
      <stop offset="30%" stop-color="#6B3E28"/>
      <stop offset="100%" stop-color="#4A2A1A"/>
    </linearGradient>

    <!-- Blue insulation -->
    <linearGradient id="blueIns" x1="0%" y1="0%" x2="0%" y2="100%">
      <stop offset="0%" stop-color="#5BA8D8"/>
      <stop offset="30%" stop-color="#3A82B8"/>
      <stop offset="100%" stop-color="#1A5580"/>
    </linearGradient>

    <!-- Green/Yellow ground wire -->
    <linearGradient id="greenIns" x1="0%" y1="0%" x2="0%" y2="100%">
      <stop offset="0%" stop-color="#4DB84D"/>
      <stop offset="30%" stop-color="#3DA03D"/>
      <stop offset="100%" stop-color="#2A702A"/>
    </linearGradient>
  </defs>

  <!-- Dark background -->
  <rect x="0" y="0" width="200" height="120" fill="#0a0a12" rx="4"/>

  <!-- Wire 1: Brown/Tan (top wire, angled up) -->
  <g transform="translate(0, 5)">
    <!-- Wire insulation body -->
    <ellipse cx="12" cy="32" rx="7" ry="9" fill="url(#brownIns)"/>
    <rect x="12" y="23" width="95" height="18" fill="url(#brownIns)"/>
    <ellipse cx="107" cy="32" rx="3" ry="9" fill="#4A2A1A"/>

    <!-- Copper strands fanning out from insulation -->
    <!-- Individual strands with varying curves -->
    <path d="M107 26 Q125 18 160 8" stroke="url(#copperStrand)" stroke-width="2.5" fill="none" stroke-linecap="round"/>
    <path d="M107 28 Q130 22 165 16" stroke="url(#copperStrand)" stroke-width="2.2" fill="none" stroke-linecap="round"/>
    <path d="M107 30 Q135 26 170 22" stroke="url(#copperStrand)" stroke-width="2.8" fill="none" stroke-linecap="round"/>
    <path d="M107 32 Q140 30 175 28" stroke="url(#copperStrand)" stroke-width="2.5" fill="none" stroke-linecap="round"/>
    <path d="M107 34 Q138 34 172 36" stroke="url(#copperStrand)" stroke-width="2.3" fill="none" stroke-linecap="round"/>
    <path d="M107 36 Q132 38 165 44" stroke="url(#copperStrand)" stroke-width="2.0" fill="none" stroke-linecap="round"/>
    <path d="M107 38 Q125 42 155 52" stroke="url(#copperStrand)" stroke-width="1.8" fill="none" stroke-linecap="round"/>

    <!-- Strand highlights -->
    <path d="M115 20 Q140 16 162 12" stroke="#FFE4B8" stroke-width="0.8" fill="none" opacity="0.6"/>
    <path d="M120 26 Q145 24 168 20" stroke="#FFE4B8" stroke-width="0.8" fill="none" opacity="0.6"/>
    <path d="M125 32 Q150 30 173 28" stroke="#FFE4B8" stroke-width="0.8" fill="none" opacity="0.6"/>
  </g>

  <!-- Wire 2: Blue (middle wire) -->
  <g transform="translate(0, 0)">
    <!-- Wire insulation body -->
    <ellipse cx="18" cy="62" rx="8" ry="10" fill="url(#blueIns)"/>
    <rect x="18" y="52" width="100" height="20" fill="url(#blueIns)"/>
    <ellipse cx="118" cy="62" rx="3.5" ry="10" fill="#1A5580"/>

    <!-- Copper strands fanning out -->
    <path d="M118 54 Q138 48 170 42" stroke="url(#copperStrand)" stroke-width="2.4" fill="none" stroke-linecap="round"/>
    <path d="M118 57 Q142 54 178 50" stroke="url(#copperStrand)" stroke-width="2.6" fill="none" stroke-linecap="round"/>
    <path d="M118 60 Q148 58 185 56" stroke="url(#copperStrand)" stroke-width="2.8" fill="none" stroke-linecap="round"/>
    <path d="M118 63 Q150 62 188 62" stroke="url(#copperStrand)" stroke-width="3.0" fill="none" stroke-linecap="round"/>
    <path d="M118 66 Q148 68 182 72" stroke="url(#copperStrand)" stroke-width="2.6" fill="none" stroke-linecap="round"/>
    <path d="M118 69 Q140 74 172 82" stroke="url(#copperStrand)" stroke-width="2.2" fill="none" stroke-linecap="round"/>
    <path d="M118 72 Q135 80 160 92" stroke="url(#copperStrand)" stroke-width="2.0" fill="none" stroke-linecap="round"/>

    <!-- Strand highlights -->
    <path d="M128 50 Q152 48 172 44" stroke="#FFE4B8" stroke-width="0.8" fill="none" opacity="0.6"/>
    <path d="M135 58 Q158 56 182 54" stroke="#FFE4B8" stroke-width="0.8" fill="none" opacity="0.6"/>
    <path d="M140 64 Q165 64 186 64" stroke="#FFE4B8" stroke-width="0.8" fill="none" opacity="0.6"/>
  </g>

  <!-- Wire 3: Green (bottom wire, angled down) -->
  <g transform="translate(0, -2)">
    <!-- Wire insulation body -->
    <ellipse cx="25" cy="95" rx="7" ry="9" fill="url(#greenIns)"/>
    <rect x="25" y="86" width="90" height="18" fill="url(#greenIns)"/>
    <ellipse cx="115" cy="95" rx="3" ry="9" fill="#2A702A"/>

    <!-- Copper strands fanning out -->
    <path d="M115 88 Q132 82 158 74" stroke="url(#copperStrand)" stroke-width="2.2" fill="none" stroke-linecap="round"/>
    <path d="M115 90 Q136 86 165 80" stroke="url(#copperStrand)" stroke-width="2.4" fill="none" stroke-linecap="round"/>
    <path d="M115 93 Q142 90 175 86" stroke="url(#copperStrand)" stroke-width="2.6" fill="none" stroke-linecap="round"/>
    <path d="M115 96 Q145 96 180 96" stroke="url(#copperStrand)" stroke-width="2.8" fill="none" stroke-linecap="round"/>
    <path d="M115 99 Q140 102 172 108" stroke="url(#copperStrand)" stroke-width="2.4" fill="none" stroke-linecap="round"/>
    <path d="M115 102 Q135 108 162 118" stroke="url(#copperStrand)" stroke-width="2.0" fill="none" stroke-linecap="round"/>

    <!-- Strand highlights -->
    <path d="M125 84 Q148 80 165 76" stroke="#FFE4B8" stroke-width="0.8" fill="none" opacity="0.6"/>
    <path d="M132 92 Q155 90 178 88" stroke="#FFE4B8" stroke-width="0.8" fill="none" opacity="0.6"/>
    <path d="M135 98 Q158 98 178 98" stroke="#FFE4B8" stroke-width="0.8" fill="none" opacity="0.6"/>
  </g>
</svg>
