<svg xmlns="http://www.w3.org/2000/svg" viewBox="0 0 200 120" fill="none">
  <defs>
    <!-- Copper gradient for strands -->
    <linearGradient id="copperGrad" x1="0%" y1="0%" x2="100%" y2="0%">
      <stop offset="0%" stop-color="#B87333"/>
      <stop offset="30%" stop-color="#E8A050"/>
      <stop offset="60%" stop-color="#FFD699"/>
      <stop offset="100%" stop-color="#CD7F32"/>
    </linearGradient>

    <!-- Brown/tan insulation gradient -->
    <linearGradient id="brownWire" x1="0%" y1="0%" x2="0%" y2="100%">
      <stop offset="0%" stop-color="#A67B5B"/>
      <stop offset="50%" stop-color="#8B6348"/>
      <stop offset="100%" stop-color="#5D4332"/>
    </linearGradient>

    <!-- Blue insulation gradient -->
    <linearGradient id="blueWire" x1="0%" y1="0%" x2="0%" y2="100%">
      <stop offset="0%" stop-color="#5DADE2"/>
      <stop offset="50%" stop-color="#3498DB"/>
      <stop offset="100%" stop-color="#21618C"/>
    </linearGradient>

    <!-- Green/yellow ground insulation gradient -->
    <linearGradient id="greenWire" x1="0%" y1="0%" x2="0%" y2="100%">
      <stop offset="0%" stop-color="#58D68D"/>
      <stop offset="50%" stop-color="#27AE60"/>
      <stop offset="100%" stop-color="#1E7E4A"/>
    </linearGradient>
  </defs>

  <!-- Black background like the reference photo -->
  <rect width="200" height="120" fill="#0D0D0D"/>

  <!-- === BROWN/TAN WIRE (TOP) - angled upward slightly === -->
  <g transform="rotate(-8, 60, 30)">
    <!-- Insulation body -->
    <rect x="-10" y="22" width="85" height="16" rx="8" fill="url(#brownWire)"/>
    <ellipse cx="75" cy="30" rx="4" ry="8" fill="#5D4332"/>

    <!-- Copper strands fanning out -->
    <path d="M75 24 C95 18, 120 10, 150 4" stroke="url(#copperGrad)" stroke-width="2.2" fill="none" stroke-linecap="round"/>
    <path d="M75 26 C98 22, 125 16, 155 12" stroke="url(#copperGrad)" stroke-width="2.5" fill="none" stroke-linecap="round"/>
    <path d="M75 28 C100 26, 130 22, 160 18" stroke="url(#copperGrad)" stroke-width="2.8" fill="none" stroke-linecap="round"/>
    <path d="M75 30 C102 30, 135 28, 165 26" stroke="url(#copperGrad)" stroke-width="3.0" fill="none" stroke-linecap="round"/>
    <path d="M75 32 C100 34, 130 36, 158 38" stroke="url(#copperGrad)" stroke-width="2.8" fill="none" stroke-linecap="round"/>
    <path d="M75 34 C96 38, 122 44, 150 52" stroke="url(#copperGrad)" stroke-width="2.4" fill="none" stroke-linecap="round"/>
    <path d="M75 36 C92 42, 115 52, 140 64" stroke="url(#copperGrad)" stroke-width="2.0" fill="none" stroke-linecap="round"/>

    <!-- Copper highlights for metallic sheen -->
    <path d="M85 22 C105 18, 128 12, 148 8" stroke="#FFE4C4" stroke-width="0.6" fill="none" opacity="0.5"/>
    <path d="M90 28 C112 26, 138 22, 162 18" stroke="#FFE4C4" stroke-width="0.6" fill="none" opacity="0.5"/>
  </g>

  <!-- === BLUE WIRE (MIDDLE) - horizontal === -->
  <g transform="translate(8, 25)">
    <!-- Insulation body -->
    <rect x="-5" y="30" width="95" height="18" rx="9" fill="url(#blueWire)"/>
    <ellipse cx="90" cy="39" rx="4.5" ry="9" fill="#21618C"/>

    <!-- Copper strands fanning out -->
    <path d="M90 32 C112 26, 140 18, 172 10" stroke="url(#copperGrad)" stroke-width="2.4" fill="none" stroke-linecap="round"/>
    <path d="M90 35 C115 32, 148 26, 180 20" stroke="url(#copperGrad)" stroke-width="2.7" fill="none" stroke-linecap="round"/>
    <path d="M90 38 C118 36, 155 34, 190 32" stroke="url(#copperGrad)" stroke-width="3.2" fill="none" stroke-linecap="round"/>
    <path d="M90 41 C120 42, 158 44, 195 46" stroke="url(#copperGrad)" stroke-width="3.0" fill="none" stroke-linecap="round"/>
    <path d="M90 44 C116 48, 150 56, 182 66" stroke="url(#copperGrad)" stroke-width="2.6" fill="none" stroke-linecap="round"/>
    <path d="M90 47 C110 54, 138 68, 165 84" stroke="url(#copperGrad)" stroke-width="2.2" fill="none" stroke-linecap="round"/>

    <!-- Copper highlights -->
    <path d="M100 30 C125 26, 155 20, 178 14" stroke="#FFE4C4" stroke-width="0.6" fill="none" opacity="0.5"/>
    <path d="M105 38 C135 36, 165 34, 192 32" stroke="#FFE4C4" stroke-width="0.6" fill="none" opacity="0.5"/>
  </g>

  <!-- === GREEN WIRE (BOTTOM) - angled downward === -->
  <g transform="rotate(6, 50, 95)">
    <!-- Insulation body -->
    <rect x="5" y="80" width="80" height="15" rx="7.5" fill="url(#greenWire)"/>
    <ellipse cx="85" cy="87.5" rx="4" ry="7.5" fill="#1E7E4A"/>

    <!-- Copper strands fanning out -->
    <path d="M85 81 C105 74, 130 64, 155 52" stroke="url(#copperGrad)" stroke-width="2.0" fill="none" stroke-linecap="round"/>
    <path d="M85 83 C108 78, 138 70, 165 60" stroke="url(#copperGrad)" stroke-width="2.4" fill="none" stroke-linecap="round"/>
    <path d="M85 85.5 C112 84, 148 80, 180 76" stroke="url(#copperGrad)" stroke-width="2.8" fill="none" stroke-linecap="round"/>
    <path d="M85 88 C115 90, 152 94, 185 98" stroke="url(#copperGrad)" stroke-width="3.0" fill="none" stroke-linecap="round"/>
    <path d="M85 91 C110 98, 142 110, 170 124" stroke="url(#copperGrad)" stroke-width="2.5" fill="none" stroke-linecap="round"/>
    <path d="M85 94 C105 104, 130 120, 152 138" stroke="url(#copperGrad)" stroke-width="2.0" fill="none" stroke-linecap="round"/>

    <!-- Copper highlights -->
    <path d="M95 80 C118 74, 145 66, 168 56" stroke="#FFE4C4" stroke-width="0.6" fill="none" opacity="0.5"/>
    <path d="M100 88 C128 88, 160 86, 185 84" stroke="#FFE4C4" stroke-width="0.6" fill="none" opacity="0.5"/>
  </g>
</svg>
